<svg xmlns="http://www.w3.org/2000/svg" width="1366" height="292" viewBox="0 0 1366 292">
  <g id="Group_2819" data-name="Group 2819" transform="translate(0 34)">
    <rect id="Rectangle_5020" data-name="Rectangle 5020" width="1366" height="292" transform="translate(0 -34)" fill="#80aeff"/>
    <g id="Group_2684" data-name="Group 2684" transform="translate(202.667 -4.606)">
      <circle id="Ellipse_381" data-name="Ellipse 381" cx="16.146" cy="16.146" r="16.146" transform="translate(43.184 51.09)" fill="#fff"/>
      <circle id="Ellipse_382" data-name="Ellipse 382" cx="14.258" cy="14.258" r="14.258" transform="matrix(0.16, -0.987, 0.987, 0.16, 43.487, 28.147)" fill="#fff"/>
      <path id="Path_6707" data-name="Path 6707" d="M207.642,296.985a10.488,10.488,0,0,0,10.058-9.9l-.009-149.514,17.52-14.486a9.664,9.664,0,0,0,2.759-3.717L252.3,85.144a9.653,9.653,0,0,0-16.071-10.2,9.545,9.545,0,0,0-1.778,2.729l-1.793,4.281L212.214,70.411a6.443,6.443,0,0,0-3.167-.833H178.406a6.456,6.456,0,0,0-3.264.886l-20.2,11.849L153,77.669a9.676,9.676,0,0,0-17.849,7.475l14.332,34.223a9.664,9.664,0,0,0,2.759,3.717l20.061,16.59c.032.156.052,147.291.052,147.291.025,4.915,4.419,10.022,9.839,10.022,5.019,0,9.14-4.309,9.753-8.849.081-.6.07-80.373.07-80.373a1.091,1.091,0,0,1,1.092-1.092h3.823a1.092,1.092,0,0,1,1.092,1.092l-.009,79.361C198.06,292.041,202.222,296.985,207.642,296.985Zm-26.9-175.446-14.33-11.851-6.438-15.37,20.186-11.842H207.35l20.292,11.452-6.6,15.76-14.33,11.851H180.741Z" transform="translate(-134.396 -34.653)" fill="#fff"/>
      <circle id="Ellipse_383" data-name="Ellipse 383" cx="10.182" cy="10.182" r="10.182" transform="translate(111.652 86.504)" fill="#fff"/>
      <path id="Path_6708" data-name="Path 6708" d="M462.264,252.476l-1.717-8.285-3.99-19.256s-1.867-8.822-9.794-8.822H430.726c-1.527,0-3.424-4.757-4.691-4.757H408.409c-4.732,0-6.228,1.324-6.228,1.324l-.737.6-13.318,10.787a6.036,6.036,0,0,0-1.053,1.4,9.159,9.159,0,0,0-1.164,4.638v12.7c0,16.782,13.593,18.934,13.593,18.934h1.987a.8.8,0,0,1,0,.382l-9.593,37.142a.649.649,0,0,0,.66.854h11.82a.883.883,0,0,1,.882.883v60.868c0,.487,0,.909-.007.943a.57.57,0,0,0,0,.064,8.693,8.693,0,0,0,8.7,8.691,8.545,8.545,0,0,0,8.511-8.7V300.48a.842.842,0,0,1,.882-.848l3.088.122a.924.924,0,0,1,.882.918v61.183c0,.487,0,.909.007.946s.009.133.011.22c0,.068,0,.135,0,.159a8.189,8.189,0,0,0,8.416,8.375,8.815,8.815,0,0,0,8.829-8.7c0-.62-.063-1.229-.063-1.814V301.058a.923.923,0,0,1,.882-.914l9.007-.32a.744.744,0,0,0,.726-.9l-6.663-37.193h2.388C464.626,261.729,462.264,252.476,462.264,252.476Z" transform="translate(-267.253 -109.545)" fill="#fff"/>
      <circle id="Ellipse_384" data-name="Ellipse 384" cx="16.146" cy="16.146" r="16.146" transform="translate(142.451 64.394)" fill="#fff"/>
    </g>
  </g>
</svg>
