<svg id="Group_2730" data-name="Group 2730" xmlns="http://www.w3.org/2000/svg" width="89.709" height="89.694" viewBox="0 0 89.709 89.694">
  <path id="Path_6747" data-name="Path 6747" d="M245.7,99.366a4.487,4.487,0,0,0-8.222-1.077l-.747,1.3a1.5,1.5,0,0,0-2.033.539l-3.8,6.472-1.3-.747a1.494,1.494,0,1,0-1.495,2.586l1.3.747L216.7,131.207l-3.139,8.387-1.495,2.795a4.485,4.485,0,0,0,.239,4.844l-3.364,4.126L208,149a2.99,2.99,0,0,0-5.337-.419l-.538.912-.508-5.98a2.99,2.99,0,0,0-5.815-.7L192.12,153.84a1.5,1.5,0,0,0,.942,1.884,1.293,1.293,0,0,0,.464.119,1.494,1.494,0,0,0,1.42-1.016l3.662-11.032.523,6.069a2.99,2.99,0,0,0,5.546,1.286l.553-.912.927,2.348a2.989,2.989,0,0,0,5.112.762l3.483-4.41a4.6,4.6,0,0,0,1.181.15,4.485,4.485,0,0,0,3.9-2.213l1.495-2.5,5.7-6.921,12.841-22.289,1.3.748a1.5,1.5,0,0,1,.553,2.048l-5.98,10.36a1.484,1.484,0,1,0,2.526,1.555l5.98-10.36a4.483,4.483,0,0,0-1.645-6.129l-1.3-.748,3.737-6.473a1.5,1.5,0,0,0-.538-2.033l.748-1.3A4.485,4.485,0,0,0,245.7,99.366Zm-5.636.418a1.5,1.5,0,0,1,.912-.7,1.569,1.569,0,0,1,1.136.15,1.5,1.5,0,0,1,.7.912,1.571,1.571,0,0,1-.15,1.136l-.747,1.3-2.6-1.495Zm-20.375,41.738-.747-.434-2.212-1.286,2.122-5.68,4.709,2.72Zm-4.485,4.32a1.494,1.494,0,0,1-.448-1.958l.747-1.3,2.6,1.495-.747,1.285a1.494,1.494,0,0,1-2.153.478Zm10.061-11.45-5.172-2.99,11.959-20.72,5.172,2.99Zm13.454-23.306-5.172-2.99,2.99-5.172,5.172,2.99Z" transform="translate(-156.152 -78.108)" fill="#fff"/>
  <path id="Path_6748" data-name="Path 6748" d="M78.312,356.936l-5.291,5.277-3.169-3.169a1.5,1.5,0,1,0-2.108,2.123l3.169,3.169a3.013,3.013,0,0,0,4.231,0l5.277-5.292a1.5,1.5,0,0,0-2.108-2.108Z" transform="translate(-54.723 -289.949)" fill="#fff"/>
  <path id="Path_6749" data-name="Path 6749" d="M32,324.735a12.707,12.707,0,1,0,25.413,0,1.495,1.495,0,0,0-2.99,0,9.718,9.718,0,1,1-3.887-7.773,1.5,1.5,0,0,0,1.794-2.392A12.707,12.707,0,0,0,32,324.735Z" transform="translate(-26.015 -253.728)" fill="#fff"/>
  <path id="Path_6750" data-name="Path 6750" d="M112.35,51.062a1.495,1.495,0,1,0,0-2.99H73.483a1.5,1.5,0,0,0-1.495,1.495v5.98a1.494,1.494,0,0,0,1.495,1.495H112.35a1.495,1.495,0,0,0,0-2.99H74.978v-2.99Z" transform="translate(-58.534 -39.103)" fill="#fff"/>
  <path id="Path_6751" data-name="Path 6751" d="M97.479,112.061a1.495,1.495,0,0,0,0,2.99h29.9a1.495,1.495,0,1,0,0-2.99Z" transform="translate(-78.045 -91.132)" fill="#fff"/>
  <path id="Path_6752" data-name="Path 6752" d="M162.361,168.051H129.473a1.495,1.495,0,1,0,0,2.99h32.888a1.495,1.495,0,1,0,0-2.99Z" transform="translate(-104.06 -136.658)" fill="#fff"/>
  <path id="Path_6753" data-name="Path 6753" d="M88.878,217.538a1.5,1.5,0,0,0-1.495-1.495h-29.9a1.495,1.495,0,1,0,0,2.99h29.9A1.494,1.494,0,0,0,88.878,217.538Z" transform="translate(-45.526 -175.681)" fill="#fff"/>
  <path id="Path_6754" data-name="Path 6754" d="M259.917,216.043H249.453a1.495,1.495,0,0,0,0,2.99h10.464a1.495,1.495,0,1,0,0-2.99Z" transform="translate(-201.616 -175.681)" fill="#fff"/>
  <path id="Path_6755" data-name="Path 6755" d="M72.434,259.026a1.495,1.495,0,0,0,0-2.99H57.485a1.495,1.495,0,0,0,0,2.99Z" transform="translate(-45.526 -208.199)" fill="#fff"/>
  <path id="Path_6756" data-name="Path 6756" d="M169.466,259.026H179.93a1.495,1.495,0,0,0,0-2.99H169.466a1.495,1.495,0,0,0,0,2.99Z" transform="translate(-136.578 -208.199)" fill="#fff"/>
  <path id="Path_6757" data-name="Path 6757" d="M67.271,68.845a1.5,1.5,0,0,0-1.495,1.495V85.289a1.5,1.5,0,0,1-1.495,1.495H4.485A1.5,1.5,0,0,1,2.99,85.289V4.565A1.5,1.5,0,0,1,4.485,3.07h59.8a1.5,1.5,0,0,1,1.495,1.495V32.639a1.495,1.495,0,1,0,2.99,0V4.565A4.485,4.485,0,0,0,64.281.08H4.485A4.485,4.485,0,0,0,0,4.565V85.289a4.484,4.484,0,0,0,4.485,4.485h59.8a4.484,4.484,0,0,0,4.485-4.485V70.34A1.5,1.5,0,0,0,67.271,68.845Z" transform="translate(0 -0.08)" fill="#fff"/>
</svg>
