<svg xmlns="http://www.w3.org/2000/svg" width="33.729" height="29.5" viewBox="0 0 33.729 29.5">
  <g id="Group_2810" data-name="Group 2810" transform="translate(0 -11)">
    <path id="Path_6884" data-name="Path 6884" d="M92.314,24.964A6.982,6.982,0,1,1,99.3,17.982,6.99,6.99,0,0,1,92.314,24.964Zm0-11.87A4.888,4.888,0,1,0,97.2,17.982,4.893,4.893,0,0,0,92.314,13.095Z" transform="translate(-79.746)" fill="#005cff"/>
    <path id="Path_6885" data-name="Path 6885" d="M318.124,322.107h-7.681A2.446,2.446,0,0,1,308,319.663v-4.887a2.446,2.446,0,0,1,2.444-2.444h7.681a2.446,2.446,0,0,1,2.444,2.444v4.887A2.446,2.446,0,0,1,318.124,322.107Zm-7.681-7.681a.349.349,0,0,0-.349.349v4.887a.349.349,0,0,0,.349.349h7.681a.349.349,0,0,0,.349-.349v-4.887a.349.349,0,0,0-.349-.349Z" transform="translate(-286.839 -281.607)" fill="#005cff"/>
    <path id="Path_6886" data-name="Path 6886" d="M356.6,234.68h-4.887a1.048,1.048,0,0,1-1.047-1.047v-3.142a3.491,3.491,0,0,1,6.982,0v3.142A1.048,1.048,0,0,1,356.6,234.68Zm-3.84-2.095h2.793v-2.095a1.4,1.4,0,0,0-2.793,0Z" transform="translate(-326.714 -201.861)" fill="#005cff"/>
    <path id="Path_6887" data-name="Path 6887" d="M17.456,279.568H1.047A1.048,1.048,0,0,1,0,278.521v-4.888A6.641,6.641,0,0,1,6.633,267H18.852a6.614,6.614,0,0,1,3.322.894,1.047,1.047,0,1,1-1.054,1.81,4.525,4.525,0,0,0-2.268-.609H6.633a4.544,4.544,0,0,0-4.538,4.538v3.84H17.456a1.047,1.047,0,0,1,0,2.095Z" transform="translate(0 -239.243)" fill="#005cff"/>
  </g>
</svg>
