<svg id="Group_2683" data-name="Group 2683" xmlns="http://www.w3.org/2000/svg" width="146.75" height="66.273" viewBox="0 0 146.75 66.273">
  <text id="ta" transform="translate(0 53.273)" fill="#0069b7" font-size="53" font-family="Ebrima-Bold, Ebrima" font-weight="700"><tspan x="0" y="0">ta</tspan></text>
  <text id="kil" transform="translate(87.75 52)" fill="#636363" font-size="52" font-family="Ebrima-Bold, Ebrima" font-weight="700"><tspan x="0" y="0">kil</tspan></text>
  <line id="Line_68" data-name="Line 68" y2="38.868" transform="translate(53.349 20.404)" fill="none" stroke="#0069b7" stroke-miterlimit="10" stroke-width="11"/>
  <path id="ic_fingerprint_24px" d="M18.533,4.5a.5.5,0,0,1-.241-.061A12.359,12.359,0,0,0,12.45,3.011,12.356,12.356,0,0,0,6.608,4.437a.544.544,0,0,1-.713-.2.5.5,0,0,1,.21-.687,13.785,13.785,0,0,1,12.67-.01.486.486,0,0,1,.22.677.516.516,0,0,1-.461.283ZM3.525,9.805a.561.561,0,0,1-.3-.091.493.493,0,0,1-.126-.708A10.736,10.736,0,0,1,7.028,5.7a12.513,12.513,0,0,1,10.813-.01,10.78,10.78,0,0,1,3.933,3.286.494.494,0,0,1-.126.708.535.535,0,0,1-.734-.121A9.751,9.751,0,0,0,17.359,6.59,11.423,11.423,0,0,0,7.5,6.6,9.851,9.851,0,0,0,3.934,9.593a.462.462,0,0,1-.409.212Zm6.555,12.2a.5.5,0,0,1-.367-.152A10.271,10.271,0,0,1,7.6,19.187,8.716,8.716,0,0,1,6.5,14.8,5.717,5.717,0,0,1,12.44,9.35,5.717,5.717,0,0,1,18.376,14.8a.525.525,0,0,1-1.049,0,4.685,4.685,0,0,0-4.888-4.438A4.685,4.685,0,0,0,7.552,14.8a7.693,7.693,0,0,0,.975,3.892,9.62,9.62,0,0,0,1.94,2.447.506.506,0,0,1,0,.718A.587.587,0,0,1,10.08,22.008Zm7.52-1.87a5.8,5.8,0,0,1-3.251-.9,5.336,5.336,0,0,1-2.5-4.438.525.525,0,0,1,1.049,0,4.311,4.311,0,0,0,2.035,3.6,4.726,4.726,0,0,0,2.664.718,7.183,7.183,0,0,0,1.091-.1.521.521,0,0,1,.608.415.506.506,0,0,1-.43.586,7.423,7.423,0,0,1-1.269.121ZM15.492,22.22a.635.635,0,0,1-.136-.02,8.265,8.265,0,0,1-3.9-2.123A7.246,7.246,0,0,1,9.178,14.8a3.113,3.113,0,0,1,3.23-2.972,3.113,3.113,0,0,1,3.23,2.972,2.08,2.08,0,0,0,2.182,1.961A2.08,2.08,0,0,0,20,14.8c0-3.812-3.409-6.905-7.6-6.905a7.694,7.694,0,0,0-6.933,4.074A6.306,6.306,0,0,0,4.846,14.8a9.723,9.723,0,0,0,.7,3.65.489.489,0,0,1-.3.647.526.526,0,0,1-.671-.293,10.9,10.9,0,0,1-.766-4,7.364,7.364,0,0,1,.713-3.276A8.744,8.744,0,0,1,12.4,6.873c4.772,0,8.653,3.549,8.653,7.916a3.113,3.113,0,0,1-3.23,2.972,3.113,3.113,0,0,1-3.23-2.972,2.08,2.08,0,0,0-2.182-1.961,2.08,2.08,0,0,0-2.182,1.961,6.253,6.253,0,0,0,1.961,4.56,7.2,7.2,0,0,0,3.43,1.87.5.5,0,0,1,.367.617A.508.508,0,0,1,15.492,22.22Z" transform="translate(57.731 22.893)" fill="#005cff"/>
</svg>
