<svg xmlns="http://www.w3.org/2000/svg" width="478.518" height="438.549" viewBox="0 0 478.518 438.549">
  <g id="Group_2848" data-name="Group 2848" transform="translate(-180.241 -164.059)">
    <g id="Group_2819" data-name="Group 2819" transform="translate(182.538 164.059)">
      <g id="Group_2820" data-name="Group 2820" transform="translate(0 36.069)">
        <path id="Path_6897" data-name="Path 6897" d="M115.578,184.413a25.8,25.8,0,1,0,0-51.607h-3.165v51.607Z" transform="translate(-45.233 -94.053)" fill="#e0e0e0"/>
        <circle id="Ellipse_399" data-name="Ellipse 399" cx="25.804" cy="25.804" r="25.804" transform="translate(41.377 38.752)" fill="#f5f5f5"/>
        <path id="Path_6898" data-name="Path 6898" d="M118,167.422a34.579,34.579,0,0,1-34.541-34.54V112.244a3.244,3.244,0,0,1,6.487,0v20.639A28.086,28.086,0,0,0,118,160.936a3.243,3.243,0,0,1,0,6.486Z" transform="translate(-52.007 -99.624)" fill="#e0e0e0"/>
        <path id="Path_6899" data-name="Path 6899" d="M63.969,132.19h57.408a5.994,5.994,0,0,0,5.794-7.529l-4.979-18.8a6,6,0,0,0-5.795-4.46H68.95a6,6,0,0,0-5.795,4.46l-4.979,18.8A5.993,5.993,0,0,0,63.969,132.19Z" transform="translate(-57.972 -101.402)" fill="#f5f5f5"/>
      </g>
      <g id="Group_2821" data-name="Group 2821" transform="translate(364.399 36.069)">
        <path id="Path_6900" data-name="Path 6900" d="M410.877,184.413a25.8,25.8,0,1,0,0-51.607h-3.165v51.607Z" transform="translate(-340.532 -94.053)" fill="#e0e0e0"/>
        <circle id="Ellipse_400" data-name="Ellipse 400" cx="25.804" cy="25.804" r="25.804" transform="translate(41.377 38.752)" fill="#f5f5f5"/>
        <path id="Path_6901" data-name="Path 6901" d="M413.3,167.422a34.579,34.579,0,0,1-34.541-34.54V112.244a3.244,3.244,0,0,1,6.487,0v20.639A28.086,28.086,0,0,0,413.3,160.936a3.243,3.243,0,1,1,0,6.486Z" transform="translate(-347.306 -99.624)" fill="#e0e0e0"/>
        <path id="Path_6902" data-name="Path 6902" d="M359.268,132.19h57.407a5.994,5.994,0,0,0,5.795-7.529l-4.979-18.8a6,6,0,0,0-5.795-4.46H364.247a5.994,5.994,0,0,0-5.794,4.46l-4.979,18.8A5.993,5.993,0,0,0,359.268,132.19Z" transform="translate(-353.271 -101.402)" fill="#f5f5f5"/>
      </g>
      <g id="Group_2827" data-name="Group 2827" transform="translate(1.372 215.589)">
        <g id="Group_2822" data-name="Group 2822" transform="translate(34.8)">
          <rect id="Rectangle_5035" data-name="Rectangle 5035" width="18.765" height="72.72" transform="translate(76.389 85.113) rotate(180)" fill="#e6e6e6"/>
          <path id="Path_6903" data-name="Path 6903" d="M92.751,331.993h62.279l9.405-85.113H102.157Z" transform="translate(-86.006 -246.88)" fill="#f0f0f0"/>
          <path id="Path_6904" data-name="Path 6904" d="M87.285,331.993h64.33l9.405-85.113H96.69Z" transform="translate(-87.285 -246.88)" fill="#f5f5f5"/>
          <path id="Path_6905" data-name="Path 6905" d="M145.8,324.014l7.923-71.7H100.176l-7.923,71.7Z" transform="translate(-86.122 -245.608)" fill="#fff"/>
          <path id="Path_6906" data-name="Path 6906" d="M131.25,303.34l.323-2.922c1.988-17.988-9.244-34.019-23.832-34.019h0l-.323,2.922c-1.988,17.987,9.243,34.019,23.832,34.019Z" transform="translate(-82.627 -242.313)" fill="#f5f5f5"/>
        </g>
        <g id="Group_2824" data-name="Group 2824" transform="translate(0 85.113)">
          <g id="Group_2823" data-name="Group 2823" transform="translate(0 0)">
            <rect id="Rectangle_5036" data-name="Rectangle 5036" width="55.331" height="82.117" transform="translate(55.331 82.117) rotate(180)" fill="#e6e6e6"/>
            <path id="Path_6907" data-name="Path 6907" d="M64.65,385.4H59.084V369.57h11.4Z" transform="translate(-59.084 -303.284)" fill="#f0f0f0"/>
            <rect id="Rectangle_5037" data-name="Rectangle 5037" width="55.331" height="82.117" transform="translate(210.407 82.117) rotate(180)" fill="#e6e6e6"/>
            <rect id="Rectangle_5038" data-name="Rectangle 5038" width="159.933" height="72.402" transform="translate(159.933 72.402) rotate(180)" fill="#f0f0f0"/>
            <path id="Path_6908" data-name="Path 6908" d="M185.286,385.4h5.566V369.57h-11.4Z" transform="translate(-30.918 -303.284)" fill="#f0f0f0"/>
            <rect id="Rectangle_5039" data-name="Rectangle 5039" width="151.298" height="29.215" transform="translate(155.616 33.744) rotate(180)" fill="#e6e6e6"/>
            <path id="Path_6909" data-name="Path 6909" d="M120.1,336.848h20.18a31.925,31.925,0,0,0,23.174-9.968H96.931A31.92,31.92,0,0,0,120.1,336.848Z" transform="translate(-50.228 -313.273)" fill="#f0f0f0"/>
            <rect id="Rectangle_5040" data-name="Rectangle 5040" width="151.298" height="29.215" transform="translate(155.616 67.681) rotate(180)" fill="#e6e6e6"/>
            <path id="Path_6910" data-name="Path 6910" d="M120.1,364.349h20.18a31.928,31.928,0,0,0,23.174-9.967H96.931A31.923,31.923,0,0,0,120.1,364.349Z" transform="translate(-50.228 -306.838)" fill="#f0f0f0"/>
          </g>
        </g>
        <g id="Group_2826" data-name="Group 2826" transform="translate(120.175 3.85)">
          <path id="Path_6911" data-name="Path 6911" d="M180.837,324.6h1.429c-.015-2.944.007-10.414.149-27.533.258-31.028.75-32.918.75-32.918l-3.4,14.323C177.606,294.336,180.387,310.274,180.837,324.6Z" transform="translate(-151.21 -246.689)" fill="#e6e6e6"/>
          <path id="Path_6912" data-name="Path 6912" d="M183.272,275.738c-4.9-5.838-15.365-7.537-26.081-8.991-4.207-.57,11.055,9.044,18.515,15.872,5.8,5.3,9.5,6.77,11.092,12.056C187.628,288.082,187.493,280.769,183.272,275.738Z" transform="translate(-156.471 -246.087)" fill="#e6e6e6"/>
          <path id="Path_6913" data-name="Path 6913" d="M184.2,284.195c4.9-5.838,15.365-7.539,26.081-8.991,4.207-.571-11.055,9.043-18.516,15.871-5.795,5.3-9.5,6.771-11.091,12.057C179.845,296.539,179.98,289.226,184.2,284.195Z" transform="translate(-150.901 -244.108)" fill="#e6e6e6"/>
          <path id="Path_6914" data-name="Path 6914" d="M182.236,266.089c3.672-6.977,12.915-13.548,23.286-16.04,4.072-.979-9.431,12.885-14.564,21.826-3.987,6.945-9.275,15.1-10.1,20.963C179.621,281.228,178.564,273.067,182.236,266.089Z" transform="translate(-151.034 -250)" fill="#e6e6e6"/>
          <g id="Group_2825" data-name="Group 2825" transform="translate(20.054 67.973)">
            <path id="Path_6915" data-name="Path 6915" d="M183.106,317.71h0c-4.376,0-7.991-2.193-8.243-5l-.729-4.794h17.945l-.729,4.794C191.1,315.517,187.482,317.71,183.106,317.71Z" transform="translate(-172.392 -304.42)" fill="#f0f0f0"/>
            <path id="Path_6916" data-name="Path 6916" d="M193.571,310.424H173.3l-.58-5.341h21.429Z" transform="translate(-172.722 -305.083)" fill="#f0f0f0"/>
          </g>
        </g>
      </g>
      <g id="Group_2833" data-name="Group 2833" transform="translate(128.843)">
        <g id="Group_2830" data-name="Group 2830" transform="translate(4.383 10.388)">
          <g id="Group_2829" data-name="Group 2829">
            <g id="Group_2828" data-name="Group 2828">
              <rect id="Rectangle_5041" data-name="Rectangle 5041" width="197.694" height="180.326" transform="translate(202.144 180.326) rotate(180)" fill="#e6e6e6"/>
              <rect id="Rectangle_5042" data-name="Rectangle 5042" width="200.21" height="180.326" transform="translate(200.21 180.326) rotate(180)" fill="#f5f5f5"/>
              <rect id="Rectangle_5043" data-name="Rectangle 5043" width="164.171" height="184.238" transform="translate(192.224 8.078) rotate(90)" fill="#fafafa"/>
              <path id="Path_6917" data-name="Path 6917" d="M321.808,251.308,249.3,87.138H224.667l72.512,164.171Z" transform="translate(-152.191 -79.06)" fill="#fff"/>
              <path id="Path_6918" data-name="Path 6918" d="M294.737,251.308,222.225,87.138h-16.96l72.512,164.171Z" transform="translate(-156.731 -79.06)" fill="#fff"/>
              <rect id="Rectangle_5044" data-name="Rectangle 5044" width="164.171" height="9.527" transform="translate(76.396 8.078) rotate(90)" fill="#e6e6e6"/>
              <rect id="Rectangle_5045" data-name="Rectangle 5045" width="164.171" height="9.527" transform="translate(139.724 8.078) rotate(90)" fill="#e6e6e6"/>
              <rect id="Rectangle_5046" data-name="Rectangle 5046" width="175.302" height="12.043" transform="translate(74.678 2.072) rotate(90)" fill="#f5f5f5"/>
              <rect id="Rectangle_5047" data-name="Rectangle 5047" width="175.302" height="12.043" transform="translate(138.006 2.072) rotate(90)" fill="#f5f5f5"/>
              <rect id="Rectangle_5048" data-name="Rectangle 5048" width="164.171" height="0.848" transform="translate(8.834 8.078) rotate(90)" fill="#e6e6e6"/>
            </g>
          </g>
        </g>
        <g id="Group_2832" data-name="Group 2832">
          <g id="Group_2831" data-name="Group 2831">
            <path id="Path_6919" data-name="Path 6919" d="M163.412,72.173h214.18a1.032,1.032,0,0,1,1.029,1.029h0a1.033,1.033,0,0,1-1.029,1.03H163.412a1.033,1.033,0,0,1-1.029-1.03h0A1.032,1.032,0,0,1,163.412,72.173Z" transform="translate(-162.383 -72.173)" fill="#e6e6e6"/>
            <path id="Path_6920" data-name="Path 6920" d="M330.01,78.775h0a1.4,1.4,0,0,0,1.391-1.391V74.4a1.4,1.4,0,0,0-1.391-1.391h0a1.4,1.4,0,0,0-1.391,1.391v2.986A1.4,1.4,0,0,0,330.01,78.775Z" transform="translate(-123.484 -71.978)" fill="#e6e6e6"/>
            <path id="Path_6921" data-name="Path 6921" d="M176.067,78.775h0a1.4,1.4,0,0,0,1.391-1.391V74.4a1.4,1.4,0,0,0-1.391-1.391h0a1.394,1.394,0,0,0-1.389,1.391v2.986A1.394,1.394,0,0,0,176.067,78.775Z" transform="translate(-159.506 -71.978)" fill="#e6e6e6"/>
          </g>
          <rect id="Rectangle_5049" data-name="Rectangle 5049" width="200.064" height="141.215" transform="translate(201.423 142.245) rotate(180)" fill="#e0e0e0" opacity="0.6"/>
        </g>
      </g>
      <g id="Group_2843" data-name="Group 2843" transform="translate(268.363 211.071)">
        <g id="Group_2834" data-name="Group 2834" transform="translate(38.879 15.268)">
          <rect id="Rectangle_5050" data-name="Rectangle 5050" width="47.775" height="29.248" rx="5.382" transform="translate(0 5.402)" fill="#fafafa"/>
          <rect id="Rectangle_5051" data-name="Rectangle 5051" width="47.775" height="6.263" rx="1.807" fill="#e6e6e6"/>
        </g>
        <g id="Group_2835" data-name="Group 2835" transform="translate(39.582 82.352)">
          <path id="Path_6922" data-name="Path 6922" d="M307.523,309.955s.626,20.562,24.59,20.562,24.59-20.562,24.59-20.562Z" transform="translate(-307.523 -309.955)" fill="#f0f0f0"/>
        </g>
        <g id="Group_2836" data-name="Group 2836" transform="translate(94.225 82.352)">
          <path id="Path_6923" data-name="Path 6923" d="M351.8,309.955s.626,20.562,24.59,20.562,24.59-20.562,24.59-20.562Z" transform="translate(-351.804 -309.955)" fill="#f0f0f0"/>
        </g>
        <g id="Group_2837" data-name="Group 2837" transform="translate(75.02)">
          <path id="Rectangle_5052" data-name="Rectangle 5052" d="M7.4,0h50.86a7.4,7.4,0,0,1,7.4,7.4V35.1a7.4,7.4,0,0,1-7.4,7.4H7.4A7.4,7.4,0,0,1,0,35.1V7.4A7.4,7.4,0,0,1,7.4,0Z" transform="translate(0 7.424)" fill="#f0f0f0"/>
          <rect id="Rectangle_5053" data-name="Rectangle 5053" width="65.653" height="8.607" rx="2.483" fill="#f5f5f5"/>
        </g>
        <g id="Group_2842" data-name="Group 2842" transform="translate(0 49.919)">
          <rect id="Rectangle_5054" data-name="Rectangle 5054" width="6.217" height="101.982" transform="translate(27.75 121.828) rotate(180)" fill="#e6e6e6"/>
          <g id="Group_2839" data-name="Group 2839" transform="translate(0 0)">
            <g id="Group_2838" data-name="Group 2838">
              <rect id="Rectangle_5055" data-name="Rectangle 5055" width="33.676" height="19.846" transform="translate(167.43 0)" fill="#e6e6e6"/>
              <rect id="Rectangle_5056" data-name="Rectangle 5056" width="167.43" height="19.846" transform="translate(167.43 19.846) rotate(180)" fill="#f5f5f5"/>
            </g>
          </g>
          <g id="Group_2841" data-name="Group 2841" transform="translate(0 52.996)">
            <g id="Group_2840" data-name="Group 2840" transform="translate(0 0)">
              <rect id="Rectangle_5057" data-name="Rectangle 5057" width="33.676" height="19.846" transform="translate(167.43 0)" fill="#e6e6e6"/>
              <rect id="Rectangle_5058" data-name="Rectangle 5058" width="167.43" height="19.846" transform="translate(167.43 19.846) rotate(180)" fill="#f5f5f5"/>
            </g>
          </g>
          <rect id="Rectangle_5059" data-name="Rectangle 5059" width="6.217" height="101.982" transform="translate(195.18 121.828) rotate(180)" fill="#e6e6e6"/>
          <rect id="Rectangle_5060" data-name="Rectangle 5060" width="6.217" height="101.982" transform="translate(167.43 121.828) rotate(180)" fill="#f5f5f5"/>
          <rect id="Rectangle_5061" data-name="Rectangle 5061" width="6.217" height="101.982" transform="translate(6.217 121.828) rotate(180)" fill="#f5f5f5"/>
        </g>
      </g>
    </g>
    <g id="Shadow" transform="translate(180.241 574.662)">
      <ellipse id="_Path_" data-name="&lt;Path&gt;" cx="239.259" cy="13.973" rx="239.259" ry="13.973" fill="#f5f5f5"/>
    </g>
    <g id="Login" transform="translate(250.919 224.873)">
      <g id="Group_2847" data-name="Group 2847">
        <g id="Group_2845" data-name="Group 2845" transform="translate(0 8.917)">
          <path id="Path_6924" data-name="Path 6924" d="M294.818,420.911H137.392a10.028,10.028,0,0,1-9.9-9.418L113.4,138.1a8.857,8.857,0,0,1,8.933-9.418H279.757a10.03,10.03,0,0,1,9.9,9.418L303.75,411.493A8.855,8.855,0,0,1,294.818,420.911Z" transform="translate(-113.387 -128.681)" fill="#407bff"/>
          <path id="Path_6925" data-name="Path 6925" d="M294.818,420.911H137.392a10.028,10.028,0,0,1-9.9-9.418L113.4,138.1a8.857,8.857,0,0,1,8.933-9.418H279.757a10.03,10.03,0,0,1,9.9,9.418L303.75,411.493A8.855,8.855,0,0,1,294.818,420.911Z" transform="translate(-113.387 -128.681)" fill="#fff" opacity="0.8"/>
        </g>
        <rect id="Rectangle_5062" data-name="Rectangle 5062" width="17.413" height="1.234" transform="translate(133.421)" fill="#407bff"/>
        <rect id="Rectangle_5063" data-name="Rectangle 5063" width="6.376" height="1.234" transform="translate(121.012)" fill="#407bff"/>
        <path id="Path_6926" data-name="Path 6926" d="M298.8,404.442H148.242a9.592,9.592,0,0,1-9.472-9.007L125.294,133.962a8.47,8.47,0,0,1,8.543-9.007H284.4a9.591,9.591,0,0,1,9.471,9.007l13.475,261.473A8.47,8.47,0,0,1,298.8,404.442Z" transform="translate(-110.603 -120.636)" fill="#80aeff"/>
        <path id="Path_6927" data-name="Path 6927" d="M297.663,397.286H147.1a3.606,3.606,0,0,1-3.464-3.3L130.161,132.511a2.514,2.514,0,0,1,.669-1.92,2.487,2.487,0,0,1,1.867-.761H283.259a3.608,3.608,0,0,1,3.464,3.3L300.2,394.6a2.515,2.515,0,0,1-.669,1.921A2.489,2.489,0,0,1,297.663,397.286ZM132.7,130.138a2.151,2.151,0,0,0-2.227,2.357L143.946,393.97a3.285,3.285,0,0,0,3.155,3.007H297.663a2.151,2.151,0,0,0,2.227-2.357L286.415,133.147a3.286,3.286,0,0,0-3.155-3.008Z" transform="translate(-109.463 -119.495)" fill="#fff"/>
        <ellipse id="Ellipse_401" data-name="Ellipse 401" cx="44.42" cy="46.769" rx="44.42" ry="46.769" transform="matrix(0.698, -0.716, 0.716, 0.698, 37.559, 72.171)" fill="#fff" opacity="0.3"/>
        <path id="Path_6928" data-name="Path 6928" d="M239.968,187.607a35.406,35.406,0,0,1-3.551,17.565,34.613,34.613,0,0,1-31.424,19.311,39.162,39.162,0,0,1-33.415-19.311,38.076,38.076,0,0,1-5.362-17.565,34.673,34.673,0,0,1,34.975-36.877A39.264,39.264,0,0,1,239.968,187.607Z" transform="translate(-101.036 -114.605)" fill="#fff"/>
        <path id="Path_6929" data-name="Path 6929" d="M235.39,196.71a34.613,34.613,0,0,1-31.424,19.311,39.162,39.162,0,0,1-33.415-19.311,55.755,55.755,0,0,1,31.914-9.821A60.627,60.627,0,0,1,235.39,196.71Z" transform="translate(-100.01 -106.144)" fill="#407bff"/>
        <ellipse id="Ellipse_402" data-name="Ellipse 402" cx="16.008" cy="16.855" rx="16.008" ry="16.855" transform="translate(78.162 60.087) rotate(-45.738)" fill="#407bff"/>
        <g id="Group_2846" data-name="Group 2846" transform="translate(43.828 136.336)">
          <path id="Path_6930" data-name="Path 6930" d="M271.7,273.751H153.809a4.059,4.059,0,0,1-4.008-3.812l-.892-17.323a3.583,3.583,0,0,1,3.614-3.811H270.412a4.059,4.059,0,0,1,4.008,3.811l.893,17.323A3.585,3.585,0,0,1,271.7,273.751Z" transform="translate(-148.904 -227.991)" fill="#fff"/>
          <path id="Path_6931" data-name="Path 6931" d="M229.29,243.239H180.054a4.059,4.059,0,0,1-4.008-3.812l-.189-3.677a3.584,3.584,0,0,1,3.614-3.812h49.237a4.059,4.059,0,0,1,4.008,3.812l.189,3.677A3.584,3.584,0,0,1,229.29,243.239Z" transform="translate(-142.598 -231.938)" opacity="0.3"/>
          <path id="Path_6932" data-name="Path 6932" d="M249.357,340.382H175.612a6.912,6.912,0,0,1-6.825-6.491l-.438-8.506a6.1,6.1,0,0,1,6.156-6.491H248.25a6.912,6.912,0,0,1,6.825,6.491l.438,8.506A6.1,6.1,0,0,1,249.357,340.382Z" transform="translate(-144.356 -211.59)" opacity="0.3"/>
          <path id="Path_6933" data-name="Path 6933" d="M273.442,307.586H155.553a4.058,4.058,0,0,1-4.008-3.811l-.893-17.323a3.585,3.585,0,0,1,3.616-3.812H272.157a4.059,4.059,0,0,1,4.008,3.812l.892,17.323A3.583,3.583,0,0,1,273.442,307.586Z" transform="translate(-148.496 -220.074)" fill="#fff"/>
          <path id="Path_6934" data-name="Path 6934" d="M166.629,259.713a3.969,3.969,0,0,1-4,4.22,4.493,4.493,0,0,1-4.436-4.22,3.968,3.968,0,0,1,4-4.219A4.494,4.494,0,0,1,166.629,259.713Z" transform="translate(-146.732 -226.426)" fill="#263238"/>
          <path id="Path_6935" data-name="Path 6935" d="M177.136,259.713a3.969,3.969,0,0,1-4,4.22,4.493,4.493,0,0,1-4.437-4.22,3.968,3.968,0,0,1,4-4.219A4.493,4.493,0,0,1,177.136,259.713Z" transform="translate(-144.274 -226.426)" fill="#263238"/>
          <path id="Path_6936" data-name="Path 6936" d="M187.643,259.713a3.967,3.967,0,0,1-4,4.22,4.494,4.494,0,0,1-4.437-4.22,3.968,3.968,0,0,1,4-4.219A4.493,4.493,0,0,1,187.643,259.713Z" transform="translate(-141.815 -226.426)" fill="#263238"/>
          <path id="Path_6937" data-name="Path 6937" d="M198.15,259.713a3.967,3.967,0,0,1-4,4.22,4.493,4.493,0,0,1-4.436-4.22,3.967,3.967,0,0,1,4-4.219A4.493,4.493,0,0,1,198.15,259.713Z" transform="translate(-139.356 -226.426)" fill="#263238"/>
          <path id="Path_6938" data-name="Path 6938" d="M168.372,293.549a3.967,3.967,0,0,1-4,4.219,4.493,4.493,0,0,1-4.436-4.219,3.967,3.967,0,0,1,4-4.22A4.493,4.493,0,0,1,168.372,293.549Z" transform="translate(-146.324 -218.509)" fill="#263238"/>
          <path id="Path_6939" data-name="Path 6939" d="M178.88,293.549a3.968,3.968,0,0,1-4,4.219,4.493,4.493,0,0,1-4.436-4.219,3.967,3.967,0,0,1,4-4.22A4.494,4.494,0,0,1,178.88,293.549Z" transform="translate(-143.865 -218.509)" fill="#263238"/>
          <path id="Path_6940" data-name="Path 6940" d="M189.387,293.549a3.968,3.968,0,0,1-4,4.219,4.493,4.493,0,0,1-4.437-4.219,3.968,3.968,0,0,1,4-4.22A4.493,4.493,0,0,1,189.387,293.549Z" transform="translate(-141.407 -218.509)" fill="#263238"/>
          <path id="Path_6941" data-name="Path 6941" d="M199.894,293.549a3.968,3.968,0,0,1-4,4.219,4.494,4.494,0,0,1-4.437-4.219,3.969,3.969,0,0,1,4-4.22A4.493,4.493,0,0,1,199.894,293.549Z" transform="translate(-138.948 -218.509)" fill="#263238"/>
          <path id="Path_6942" data-name="Path 6942" d="M210.4,293.549a3.967,3.967,0,0,1-4,4.219,4.493,4.493,0,0,1-4.436-4.219,3.967,3.967,0,0,1,4-4.22A4.493,4.493,0,0,1,210.4,293.549Z" transform="translate(-136.489 -218.509)" fill="#263238"/>
          <path id="Path_6943" data-name="Path 6943" d="M220.909,293.549a3.968,3.968,0,0,1-4,4.219,4.493,4.493,0,0,1-4.436-4.219,3.967,3.967,0,0,1,4-4.22A4.5,4.5,0,0,1,220.909,293.549Z" transform="translate(-134.031 -218.509)" fill="#263238"/>
        </g>
      </g>
    </g>
  </g>
</svg>
