<svg id="Group_2737" data-name="Group 2737" xmlns="http://www.w3.org/2000/svg" width="289.092" height="148.282" viewBox="0 0 289.092 148.282">
  <path id="Path_6709" data-name="Path 6709" d="M0,0H259.357c16.422,0,29.735,14.271,29.735,31.875V133.7H29.735C13.313,133.7,0,119.428,0,101.824Z" fill="#80aeff"/>
  <g id="Group_2736" data-name="Group 2736">
    <g id="Group_2684" data-name="Group 2684" transform="translate(183.283 16.175)">
      <circle id="Ellipse_381" data-name="Ellipse 381" cx="8.131" cy="8.131" r="8.131" transform="translate(21.747 25.728)" fill="#fff"/>
      <circle id="Ellipse_382" data-name="Ellipse 382" cx="7.18" cy="7.18" r="7.18" transform="matrix(0.16, -0.987, 0.987, 0.16, 21.899, 14.175)" fill="#fff"/>
      <path id="Path_6707" data-name="Path 6707" d="M171.282,184.1a5.282,5.282,0,0,0,5.065-4.986l0-75.293,8.823-7.295a4.867,4.867,0,0,0,1.389-1.872l7.218-17.234a4.861,4.861,0,0,0-8.093-5.139,4.807,4.807,0,0,0-.9,1.374l-.9,2.156L173.584,70a3.245,3.245,0,0,0-1.595-.419h-15.43a3.251,3.251,0,0,0-1.644.446l-10.172,5.967-.979-2.339a4.872,4.872,0,0,0-8.988,3.764l7.218,17.234a4.867,4.867,0,0,0,1.389,1.872l10.1,8.355c.016.078.026,74.174.026,74.174a4.946,4.946,0,0,0,9.867.591c.041-.3.035-40.475.035-40.475a.55.55,0,0,1,.55-.55h1.925a.55.55,0,0,1,.55.55l0,39.965A5.066,5.066,0,0,0,171.282,184.1ZM157.735,95.745l-7.216-5.968-3.242-7.74,10.165-5.964h13.693l10.219,5.767-3.323,7.937-7.217,5.968H157.735Z" transform="translate(-134.396 -51.991)" fill="#fff"/>
      <circle id="Ellipse_383" data-name="Ellipse 383" cx="5.128" cy="5.128" r="5.128" transform="translate(56.226 43.562)" fill="#fff"/>
      <path id="Path_6708" data-name="Path 6708" d="M424.36,232.064l-.865-4.172-2.009-9.7s-.94-4.442-4.932-4.442h-8.076c-.769,0-1.724-2.4-2.362-2.4h-8.876c-2.383,0-3.136.667-3.136.667l-.371.3-6.707,5.432a3.04,3.04,0,0,0-.53.7,4.612,4.612,0,0,0-.586,2.335v6.393c0,8.451,6.845,9.535,6.845,9.535h1a.405.405,0,0,1,0,.192l-4.831,18.7a.327.327,0,0,0,.333.43h5.952a.444.444,0,0,1,.444.445v30.652c0,.245,0,.458,0,.475a.289.289,0,0,0,0,.032,4.378,4.378,0,0,0,4.381,4.377,4.3,4.3,0,0,0,4.286-4.383V256.238a.424.424,0,0,1,.444-.427l1.555.061a.465.465,0,0,1,.444.462v30.811c0,.245,0,.458,0,.476s0,.067.005.111,0,.068,0,.08a4.124,4.124,0,0,0,4.238,4.217,4.439,4.439,0,0,0,4.446-4.384c0-.312-.032-.619-.032-.913v-30.2a.465.465,0,0,1,.444-.46l4.536-.161a.375.375,0,0,0,.366-.453l-3.355-18.73h1.2C425.55,236.723,424.36,232.064,424.36,232.064Z" transform="translate(-326.156 -160.085)" fill="#fff"/>
      <circle id="Ellipse_384" data-name="Ellipse 384" cx="8.131" cy="8.131" r="8.131" transform="translate(71.736 32.428)" fill="#fff"/>
    </g>
  </g>
</svg>
