<svg id="Group_2711" data-name="Group 2711" xmlns="http://www.w3.org/2000/svg" width="33.648" height="33.643" viewBox="0 0 33.648 33.643">
  <path id="Path_6747" data-name="Path 6747" d="M212.168,97.29a1.683,1.683,0,0,0-3.084-.4l-.28.488a.561.561,0,0,0-.762.2L206.617,100l-.488-.28a.56.56,0,1,0-.561.97l.488.28-4.766,8.259-1.178,3.146-.561,1.048a1.682,1.682,0,0,0,.09,1.817l-1.262,1.547-.353-.886a1.121,1.121,0,0,0-2-.157l-.2.342-.191-2.243a1.121,1.121,0,0,0-2.181-.263l-1.379,4.138a.561.561,0,0,0,.353.707.485.485,0,0,0,.174.045.561.561,0,0,0,.533-.381l1.374-4.138.2,2.276a1.121,1.121,0,0,0,2.08.482l.208-.342.348.881a1.121,1.121,0,0,0,1.918.286l1.306-1.654a1.726,1.726,0,0,0,.443.056,1.682,1.682,0,0,0,1.463-.83l.561-.936,2.136-2.6,4.816-8.36.488.28a.562.562,0,0,1,.208.768l-2.243,3.886a.557.557,0,1,0,.948.583l2.243-3.886a1.682,1.682,0,0,0-.617-2.3l-.488-.28,1.4-2.428a.561.561,0,0,0-.2-.762l.28-.488A1.682,1.682,0,0,0,212.168,97.29Zm-2.114.157a.561.561,0,0,1,.342-.263.588.588,0,0,1,.426.056.561.561,0,0,1,.264.342.589.589,0,0,1-.056.426l-.28.488-.976-.561ZM202.412,113.1l-.28-.163-.83-.482.8-2.131,1.766,1.02Zm-1.682,1.62a.56.56,0,0,1-.168-.735l.28-.488.976.561-.28.482a.561.561,0,0,1-.807.179Zm3.774-4.295-1.94-1.121,4.486-7.772,1.94,1.121Zm5.046-8.742-1.94-1.121,1.121-1.94,1.94,1.121Z" transform="translate(-178.582 -89.316)" fill="#00379a"/>
  <path id="Path_6748" data-name="Path 6748" d="M71.431,356.711l-1.985,1.979L68.258,357.5a.561.561,0,1,0-.791.8l1.189,1.189a1.13,1.13,0,0,0,1.587,0l1.979-1.985a.561.561,0,0,0-.791-.791Z" transform="translate(-62.583 -331.586)" fill="#636363"/>
  <path id="Path_6749" data-name="Path 6749" d="M32,316.8a4.766,4.766,0,1,0,9.532,0,.561.561,0,0,0-1.121,0,3.645,3.645,0,1,1-1.458-2.915.561.561,0,0,0,.673-.9A4.766,4.766,0,0,0,32,316.8Z" transform="translate(-29.752 -290.161)" fill="#636363"/>
  <path id="Path_6750" data-name="Path 6750" d="M87.127,49.193a.561.561,0,1,0,0-1.121H72.549a.561.561,0,0,0-.561.561v2.243a.561.561,0,0,0,.561.561H87.127a.561.561,0,0,0,0-1.121H73.109V49.193Z" transform="translate(-66.942 -44.708)" fill="#636363"/>
  <path id="Path_6751" data-name="Path 6751" d="M96.545,112.061a.561.561,0,0,0,0,1.121h11.214a.561.561,0,1,0,0-1.121Z" transform="translate(-89.255 -104.211)" fill="#636363"/>
  <path id="Path_6752" data-name="Path 6752" d="M140.874,168.051H128.539a.561.561,0,1,0,0,1.121h12.336a.561.561,0,1,0,0-1.121Z" transform="translate(-119.007 -156.276)" fill="#636363"/>
  <path id="Path_6753" data-name="Path 6753" d="M68.326,216.6a.561.561,0,0,0-.561-.561H56.551a.561.561,0,1,0,0,1.121H67.765A.561.561,0,0,0,68.326,216.6Z" transform="translate(-52.065 -200.904)" fill="#636363"/>
  <path id="Path_6754" data-name="Path 6754" d="M252.444,216.043h-3.925a.561.561,0,0,0,0,1.121h3.925a.561.561,0,1,0,0-1.121Z" transform="translate(-230.576 -200.904)" fill="#636363"/>
  <path id="Path_6755" data-name="Path 6755" d="M62.158,257.158a.561.561,0,0,0,0-1.121H56.551a.561.561,0,0,0,0,1.121Z" transform="translate(-52.065 -238.093)" fill="#636363"/>
  <path id="Path_6756" data-name="Path 6756" d="M168.532,257.158h3.925a.561.561,0,0,0,0-1.121h-3.925a.561.561,0,0,0,0,1.121Z" transform="translate(-156.196 -238.093)" fill="#636363"/>
  <path id="Path_6757" data-name="Path 6757" d="M25.232,25.873a.561.561,0,0,0-.561.561V32.04a.561.561,0,0,1-.561.561H1.682a.561.561,0,0,1-.561-.561V1.762A.561.561,0,0,1,1.682,1.2H24.111a.561.561,0,0,1,.561.561v10.53a.561.561,0,1,0,1.121,0V1.762A1.682,1.682,0,0,0,24.111.08H1.682A1.682,1.682,0,0,0,0,1.762V32.04a1.682,1.682,0,0,0,1.682,1.682H24.111a1.682,1.682,0,0,0,1.682-1.682V26.433A.561.561,0,0,0,25.232,25.873Z" transform="translate(0 -0.08)" fill="#636363"/>
</svg>
