<svg id="Group_2713" data-name="Group 2713" xmlns="http://www.w3.org/2000/svg" width="37.666" height="31.329" viewBox="0 0 37.666 31.329">
  <path id="Path_6758" data-name="Path 6758" d="M10.513.1C4.833.215.185,4.456.006,9.694a9.427,9.427,0,0,0,2.607,6.8,2.821,2.821,0,0,1,.59,2.97L2.495,21.29a.677.677,0,0,0,1.063.724l2.508-1.73a3.5,3.5,0,0,1,2.608-.54,11.654,11.654,0,0,0,2.974.152c5.394-.412,9.647-4.527,9.841-9.516C21.711,4.665,16.688-.019,10.513.1Z" transform="translate(0 -0.1)" fill="#8a8a8a"/>
  <path id="Path_6759" data-name="Path 6759" d="M205.777,127.932a3.491,3.491,0,0,0-.719,3.619l.34.878q-.644.688-1.36,1.315l-2.112-1.455a4.244,4.244,0,0,0-3.111-.669,13.537,13.537,0,0,1-2.067.229c-6.472,0-11.719-4.84-11.719-10.811s5.252-10.811,11.719-10.811,11.719,4.84,11.719,10.811A10.276,10.276,0,0,1,205.777,127.932Z" transform="translate(-170.802 -102.415)" fill="#00379a"/>
  <g id="Group_2712" data-name="Group 2712" transform="translate(6.682 3.161)">
    <path id="Path_6760" data-name="Path 6760" d="M319.212,174.466A1.627,1.627,0,0,1,317.568,176a1.54,1.54,0,1,1,1.644-1.536Zm-.411-3.791c0,.619-.735.878-1.254.878-.692,0-1.276-.259-1.276-.878,0-2.374-.3-5.786-.3-8.16,0-.778.692-1.217,1.579-1.217.844,0,1.557.439,1.557,1.217C319.1,164.889,318.8,168.3,318.8,170.675Z" transform="translate(-298.291 -153.023)" fill="#fff"/>
    <path id="Path_6761" data-name="Path 6761" d="M92.8,51.023a2.228,2.228,0,0,0-1.111,2.287c0,.348-.2.75-1.17.75-.813,0-1.091-.274-1.091-1.226a3.259,3.259,0,0,1,1.329-2.781c.655-.512,1.765-1.08,1.765-2.068,0-.842-.793-1.244-1.785-1.244-2.023,0-1.587,1.409-2.658,1.409a1.1,1.1,0,0,1-1.19-1.043c0-.988,1.23-2.452,3.908-2.452,2.539,0,4.225,1.3,4.225,3.019S93.333,50.639,92.8,51.023Zm-.734,5.709a1.484,1.484,0,0,1-1.527,1.409,1.412,1.412,0,1,1,0-2.818A1.485,1.485,0,0,1,92.064,56.732Z" transform="translate(-86.887 -44.655)" fill="#fff"/>
  </g>
</svg>
