<svg xmlns="http://www.w3.org/2000/svg" width="32.01" height="31.855" viewBox="0 0 32.01 31.855">
  <g id="Group_2811" data-name="Group 2811" transform="translate(0 -0.016)">
    <path id="Path_6888" data-name="Path 6888" d="M296.994,353.317h-7.582A2.415,2.415,0,0,1,287,350.9v-4.825a2.415,2.415,0,0,1,2.412-2.412h7.582a2.415,2.415,0,0,1,2.412,2.412V350.9A2.415,2.415,0,0,1,296.994,353.317Zm-7.582-7.582a.345.345,0,0,0-.345.345V350.9a.345.345,0,0,0,.345.345h7.582a.345.345,0,0,0,.345-.345v-4.825a.345.345,0,0,0-.345-.345Z" transform="translate(-267.397 -321.445)" fill="#005cff"/>
    <path id="Path_6889" data-name="Path 6889" d="M335.526,265.915H330.7a1.034,1.034,0,0,1-1.034-1.034v-3.1a3.446,3.446,0,1,1,6.892,0v3.1A1.034,1.034,0,0,1,335.526,265.915Zm-3.791-2.068h2.757v-2.068a1.378,1.378,0,1,0-2.757,0Z" transform="translate(-307.307 -241.625)" fill="#005cff"/>
    <path id="Path_6890" data-name="Path 6890" d="M11.717,28.964a.943.943,0,0,1-.2-.019A15.013,15.013,0,0,1,0,13.7V5.185a1.032,1.032,0,0,1,.66-.964L11.344.086a1.038,1.038,0,0,1,.746,0L22.773,4.221a1.032,1.032,0,0,1,.662.964V13.7a18.207,18.207,0,0,1-.132,2.247,1.033,1.033,0,1,1-2.051-.249,16.347,16.347,0,0,0,.116-2V5.893l-9.65-3.734L2.068,5.893V13.7c0,10.415,8.2,12.823,9.643,13.166A13.612,13.612,0,0,0,16.3,24.659a1.034,1.034,0,1,1,1.234,1.66,15.157,15.157,0,0,1-5.617,2.625.85.85,0,0,1-.2.021Z" transform="translate(0 0)" fill="#005cff"/>
  </g>
</svg>
