<svg id="ic_record_voice_over_24px" xmlns="http://www.w3.org/2000/svg" width="118.497" height="102.344" viewBox="0 0 118.497 102.344">
  <ellipse id="Ellipse_3" data-name="Ellipse 3" cx="21" cy="22" rx="21" ry="22" transform="translate(22.935 15.668)" fill="#005cff"/>
  <path id="Path_3" data-name="Path 3" d="M44.092,72.025C29.71,72.025,1,79.243,1,93.571v10.773H87.184V93.571C87.184,79.243,58.474,72.025,44.092,72.025ZM85.892,20.1l-9.049,9.1a17.869,17.869,0,0,1,0,20.954l9.049,9.1c10.881-10.881,10.881-27.31,0-39.16ZM103.721,2l-8.78,8.78c14.921,16.267,14.921,40.722,0,57.851l8.78,8.78C124.728,56.458,124.782,23.815,103.721,2Z" transform="translate(-1 -2)" fill="#005cff"/>
</svg>
