<svg id="icon_2_doctor_1" data-name="icon/2/doctor 1" xmlns="http://www.w3.org/2000/svg" width="35.23" height="35.23" viewBox="0 0 35.23 35.23">
  <rect id="Rectangle" width="35.23" height="35.23" fill="#00379a" opacity="0"/>
  <g id="Shape" transform="translate(0.881 0.881)" fill="none" stroke-miterlimit="10">
    <path d="M25.732,33.468a7.573,7.573,0,0,1-5.16-2.013l-.216-.208-3.622-3.621-3.62,3.621a7.551,7.551,0,0,1-5.376,2.221,7.7,7.7,0,0,1-5.249-2.06L2.27,31.2A7.7,7.7,0,0,1,0,25.908a7.561,7.561,0,0,1,2.011-5.336l.208-.216,3.62-3.622-3.62-3.62A7.558,7.558,0,0,1,0,7.841a7.693,7.693,0,0,1,2.06-5.353L2.27,2.27A7.683,7.683,0,0,1,7.737,0,7.573,7.573,0,0,1,12.9,2.014l.216.208,3.62,3.62,3.622-3.62A7.548,7.548,0,0,1,25.731,0a7.752,7.752,0,0,1,7.735,7.561A7.56,7.56,0,0,1,31.455,12.9l-.208.216-3.621,3.62,3.621,3.622a7.558,7.558,0,0,1,2.22,5.272,7.693,7.693,0,0,1-2.059,5.352l-.21.218A7.682,7.682,0,0,1,25.732,33.468Zm.84-15.681h0l-8.784,8.784,3.622,3.621a6.071,6.071,0,0,0,4.323,1.785,6.217,6.217,0,0,0,4.2-1.632l.212-.2a6.169,6.169,0,0,0,.249-8.525l-.2-.209-3.621-3.622Zm-19.676,0h0L3.275,21.409a6.068,6.068,0,0,0-1.784,4.356,6.261,6.261,0,0,0,6.246,6.212,6.092,6.092,0,0,0,4.113-1.585l.209-.2,3.621-3.621L6.9,17.788ZM16.733,7.95h0L7.95,16.733l8.784,8.785,8.785-8.785L16.733,7.95Zm9-6.46h0a6.092,6.092,0,0,0-4.112,1.585l-.209.2L17.788,6.9l8.784,8.784,3.621-3.621a6.161,6.161,0,0,0,.153-8.523l-.2-.212a6.2,6.2,0,0,0-4.412-1.834Zm-17.995,0A6.229,6.229,0,0,0,3.076,11.85l.2.209L6.895,15.68,15.68,6.895,12.059,3.275A6.07,6.07,0,0,0,7.736,1.491Zm9.091,21.441a.869.869,0,1,1,.626-.266A.866.866,0,0,1,16.827,22.932Zm-2.711-2.618a.869.869,0,1,1,.626-.265A.865.865,0,0,1,14.116,20.314Zm5.288-.051A.87.87,0,1,1,20.03,20,.865.865,0,0,1,19.4,20.263Zm-8-2.567a.87.87,0,1,1,.626-.266A.864.864,0,0,1,11.406,17.7Zm5.288-.051a.87.87,0,1,1,.625-.266A.866.866,0,0,1,16.694,17.646Zm5.368-.135a.87.87,0,1,1,.626-.266A.864.864,0,0,1,22.062,17.511Zm-8.079-2.483a.869.869,0,1,1,.626-.265A.865.865,0,0,1,13.983,15.028Zm5.368-.134a.87.87,0,1,1,.625-.266A.865.865,0,0,1,19.352,14.894Zm-2.711-2.618a.869.869,0,1,1,.626-.265A.865.865,0,0,1,16.641,12.276Z" stroke="none"/>
    <path d="M 25.73161506652832 33.46831893920898 C 23.80774116516113 33.46848678588867 21.97515678405762 32.75340270996094 20.57144927978516 31.45481872558594 L 20.35586547851563 31.24715232849121 L 16.73336601257324 27.62623596191406 L 13.11324119567871 31.24715232849121 C 11.68107414245605 32.67931747436523 9.771782875061035 33.46810913085938 7.737074375152588 33.46819305419922 C 5.786824226379395 33.46827697753906 3.92278265953064 32.73665237426758 2.488324165344238 31.4080696105957 L 2.270365953445435 31.1979866027832 C 0.8531159162521362 29.7811107635498 0.04753256216645241 27.90231895446777 0.002032562159001827 25.9076099395752 C -0.04334243759512901 23.91777801513672 0.6709908843040466 22.0226936340332 2.013532638549805 20.57148551940918 L 2.22119927406311 20.35590171813965 L 5.841324329376221 16.73340225219727 L 2.22119927406311 13.11327743530273 C 0.8162825703620911 11.70836067199707 0.02778256312012672 9.836069107055664 0.0009492289391346276 7.841235637664795 C -0.02580077014863491 5.852235794067383 0.7058242559432983 3.951194047927856 2.061074256896973 2.48836088180542 L 2.270365953445435 2.270402431488037 C 3.734407663345337 0.8063191175460815 5.675824165344238 6.909688090672716e-05 7.736990928649902 6.909688090672716e-05 C 9.660865783691406 6.909688090672716e-05 11.49332427978516 0.7151524424552917 12.89686584472656 2.013569116592407 L 13.11324119567871 2.221235752105713 L 16.73336601257324 5.841360569000244 L 20.35586547851563 2.221235752105713 C 21.78786659240723 0.7888607382774353 23.69686508178711 -1.4236450624594e-05 25.73115730285645 -1.4236450624594e-05 C 27.79240798950195 -1.4236450624594e-05 29.73390769958496 0.8063191175460815 31.19794845581055 2.270402431488037 C 32.61520004272461 3.687610864639282 33.42078399658203 5.566527366638184 33.46628189086914 7.561027526855469 C 33.51169967651367 9.550694465637207 32.79732513427734 11.44569396972656 31.45478248596191 12.89690208435059 L 31.24711608886719 13.11327743530273 L 27.62619972229004 16.73340225219727 L 31.24711608886719 20.35590171813965 C 32.65199279785156 21.76077651977539 33.44053268432617 23.63294410705566 33.46744918823242 25.62752723693848 C 33.49432373046875 27.61627769470215 32.7629508972168 29.51715278625488 31.40803337097168 30.98002815246582 L 31.19794845581055 31.1979866027832 C 29.7344913482666 32.66186141967773 27.79315757751465 33.4681510925293 25.73161506652832 33.46831893920898 Z M 26.57194900512695 17.78765296936035 L 17.78761672973633 26.57198524475098 L 21.40932464599609 30.19290161132813 C 22.56019973754883 31.34377670288086 24.09540748596191 31.97761154174805 25.73211669921875 31.97761154174805 C 27.28774070739746 31.97765159606934 28.77932357788086 31.39815330505371 29.93207359313965 30.34586143493652 L 30.14369964599609 30.14373588562012 C 32.49507522583008 27.79236030578613 32.60440826416016 24.04769325256348 30.39261627197266 21.61861038208008 L 30.1928653717041 21.40936088562012 L 26.57194900512695 17.78765296936035 Z M 6.896366119384766 17.78844451904297 L 3.275449275970459 21.40936088562012 C 2.115824222564697 22.56898498535156 1.48207426071167 24.11602783203125 1.490949273109436 25.76552772521973 C 1.499865889549255 27.41569328308105 2.151074171066284 28.9705696105957 3.324615955352783 30.14373588562012 C 4.507115840911865 31.32623481750488 6.074074268341064 31.9775276184082 7.736865997314453 31.97761154174805 C 9.266740798950195 31.97761154174805 10.72724056243896 31.41473579406738 11.84974098205566 30.39265251159668 L 12.05899047851563 30.19290161132813 L 15.67990779876709 26.57198524475098 L 6.896366119384766 17.78844451904297 Z M 16.73336601257324 7.949860572814941 L 7.949824333190918 16.73340225219727 L 16.73336601257324 25.51852798461914 L 25.51849174499512 16.73340225219727 L 16.73336601257324 7.949860572814941 L 16.73336601257324 7.949819087982178 L 16.73336601257324 7.949860572814941 Z M 25.7310733795166 1.489860773086548 L 25.7310733795166 1.490777373313904 C 24.20157432556152 1.490777373313904 22.74107360839844 2.05365252494812 21.61857414245605 3.075735807418823 L 21.40932464599609 3.275485754013062 L 17.78840827941895 6.896402359008789 L 26.57194900512695 15.67994403839111 L 30.1928653717041 12.05902767181396 C 32.51799011230469 9.733901977539063 32.58515930175781 5.990277290344238 30.34586524963379 3.536277532577515 L 30.14369964599609 3.324652433395386 C 28.96124076843262 2.142152547836304 27.39424133300781 1.490860819816589 25.73144912719727 1.490777373313904 L 25.7310733795166 1.489860773086548 Z M 7.736324310302734 1.490902423858643 C 6.073491096496582 1.490902423858643 4.506741046905518 2.142110824584961 3.324615955352783 3.324652433395386 C 0.9732409119606018 5.676027297973633 0.8639075756072998 9.420694351196289 3.075699329376221 11.84977722167969 L 3.275449275970459 12.05902767181396 L 6.894782543182373 15.67994403839111 L 15.67990779876709 6.894819259643555 L 12.05899047851563 3.275485754013062 C 10.90819931030273 2.124694108963013 9.373032569885254 1.490902423858643 7.736324310302734 1.490902423858643 Z M 16.82723999023438 22.93206977844238 C 16.60061645507813 22.93210983276367 16.38595008850098 22.84536170959473 16.22290802001953 22.68790245056152 C 16.05603218078613 22.52644348144531 15.96186542510986 22.30961036682129 15.95774078369141 22.07736015319824 C 15.95361614227295 21.84494400024414 16.04015731811523 21.62515258789063 16.20149040222168 21.45848655700684 C 16.36686515808105 21.28723526000977 16.58907508850098 21.19290161132813 16.82723999023438 21.19290161132813 C 17.05382347106934 21.19290161132813 17.26823997497559 21.27961158752441 17.430908203125 21.43706893920898 C 17.59803199768066 21.59806823730469 17.69232368469238 21.81465148925781 17.69644927978516 22.04702758789063 C 17.70057487487793 22.27931976318359 17.61415672302246 22.49931907653809 17.45311546325684 22.66652679443359 C 17.28774070739746 22.83777809143066 17.06549072265625 22.93206977844238 16.82723999023438 22.93206977844238 Z M 14.11632442474365 20.31440162658691 C 13.88999080657959 20.31440162658691 13.67565727233887 20.22781944274902 13.51274108886719 20.07052803039551 C 13.34553241729736 19.90902709960938 13.25124073028564 19.69207000732422 13.24732398986816 19.45960998535156 C 13.24336624145508 19.22740173339844 13.33007431030273 19.00777816772461 13.49136543273926 18.84111022949219 C 13.65678215026855 18.66977691650391 13.87903213500977 18.57540321350098 14.1171989440918 18.57540321350098 C 14.34344959259033 18.57540321350098 14.55778217315674 18.66190338134766 14.72078227996826 18.81890296936035 C 14.88769912719727 18.98006820678711 14.98182392120361 19.19690322875977 14.98586559295654 19.42952728271484 C 14.98990726470947 19.66215324401855 14.90336608886719 19.88219451904297 14.7421989440918 20.04911041259766 C 14.57661628723145 20.22019386291504 14.35436630249023 20.31440162658691 14.11632442474365 20.31440162658691 Z M 19.4046573638916 20.26315307617188 C 19.17824172973633 20.2631950378418 18.96374130249023 20.17644500732422 18.80065727233887 20.01898574829102 C 18.63386535644531 19.85794448852539 18.5397834777832 19.6412353515625 18.53574180603027 19.40877723693848 C 18.53170013427734 19.17627716064453 18.6181583404541 18.95640182495117 18.77924156188965 18.78956985473633 C 18.94461631774902 18.61831855773926 19.16674041748047 18.52398490905762 19.40469932556152 18.52398490905762 C 19.63107490539551 18.52398490905762 19.84561538696289 18.61069488525391 20.00865745544434 18.76815223693848 C 20.17582511901855 18.92956924438477 20.27007484436035 19.14627838134766 20.27411651611328 19.37840270996094 C 20.27815818786621 19.61056900024414 20.19149017333984 19.8304443359375 20.03007507324219 19.99761009216309 C 19.86469841003418 20.16886138916016 19.64257431030273 20.26315307617188 19.4046573638916 20.26315307617188 Z M 11.40590763092041 17.69661140441895 C 11.17953300476074 17.69661140441895 10.96524047851563 17.61015319824219 10.80261611938477 17.45315170288086 C 10.45774078369141 17.1201114654541 10.44778251647949 16.56823539733887 10.78044891357422 16.22290229797363 C 10.94599056243896 16.05186080932617 11.16840744018555 15.95761108398438 11.40669918060303 15.95761108398438 C 11.63328266143799 15.95761108398438 11.84778213500977 16.04423522949219 12.01065731048584 16.2015266418457 C 12.3555326461792 16.5352783203125 12.36511611938477 17.08681869506836 12.03207397460938 17.43094444274902 C 11.86661624908447 17.6022777557373 11.64424133300781 17.69661140441895 11.40590763092041 17.69661140441895 Z M 16.69399070739746 17.64577674865723 C 16.4674072265625 17.64577674865723 16.25278282165527 17.55906867980957 16.08969879150391 17.401611328125 C 15.9224910736084 17.24011039733887 15.82819938659668 17.02315330505371 15.8242826461792 16.79069328308105 C 15.82036590576172 16.55848503112793 15.90703296661377 16.3388614654541 16.06832504272461 16.17219352722168 C 16.23369979858398 16.00094413757324 16.45590782165527 15.9066104888916 16.6940746307373 15.9066104888916 C 16.92065811157227 15.9066104888916 17.13507461547852 15.99331951141357 17.2977409362793 16.15077781677246 C 17.46469879150391 16.31161117553711 17.55899047851563 16.52802658081055 17.56315803527832 16.76011085510254 C 17.5673656463623 16.99265289306641 17.48074150085449 17.21286010742188 17.31915664672852 17.38019371032715 C 17.15419960021973 17.55148506164551 16.93215751647949 17.64577674865723 16.69399070739746 17.64577674865723 Z M 22.06215667724609 17.51102828979492 C 21.83557510375977 17.51102828979492 21.62115669250488 17.42431831359863 21.45844841003418 17.26686096191406 C 21.29165840148926 17.10581970214844 21.19757461547852 16.88911056518555 21.19353294372559 16.6566104888916 C 21.18949127197266 16.42415237426758 21.27599143981934 16.2042350769043 21.43707466125488 16.03744316101074 C 21.60203170776367 15.8661937713623 21.82403182983398 15.77186107635498 22.06219863891602 15.77186107635498 C 22.28878211975098 15.77186107635498 22.50340843200684 15.85856914520264 22.66649055480957 16.01602745056152 C 22.83361625671387 16.17740249633789 22.92790794372559 16.39415168762207 22.93194961547852 16.62627792358398 C 22.93594932556152 16.85840225219727 22.84928321838379 17.07831954956055 22.6878662109375 17.24544334411621 C 22.52253341674805 17.4167366027832 22.30028343200684 17.51102828979492 22.06215667724609 17.51102828979492 Z M 13.98315715789795 15.02811050415039 C 13.7568244934082 15.02811050415039 13.54249095916748 14.94148540496826 13.37957382202148 14.78423595428467 C 13.21236610412598 14.62273597717285 13.11807441711426 14.40577697753906 13.11411571502686 14.17331886291504 C 13.11019897460938 13.94111061096191 13.19690799713135 13.72144412994385 13.35819911956787 13.55481910705566 C 13.52361583709717 13.38348579406738 13.74586582183838 13.28911113739014 13.98403263092041 13.28911113739014 C 14.21028232574463 13.28911113739014 14.42461585998535 13.37556934356689 14.58761596679688 13.53261089324951 C 14.75453281402588 13.69373607635498 14.84865760803223 13.91061115264893 14.85269927978516 14.14323616027832 C 14.85674095153809 14.37586116790771 14.77019882202148 14.59590244293213 14.60903263092041 14.76281929016113 C 14.44344902038574 14.93390274047852 14.22119903564453 15.02811050415039 13.98315715789795 15.02811050415039 Z M 19.35153198242188 14.89365196228027 C 19.1251163482666 14.89365196228027 18.91061592102051 14.80694389343262 18.74753189086914 14.64948558807373 C 18.58028221130371 14.48798561096191 18.48603248596191 14.27102756500244 18.48207473754883 14.0385274887085 C 18.47815704345703 13.80636119842529 18.5648250579834 13.58669376373291 18.72611618041992 13.42002773284912 C 18.8914909362793 13.24877738952637 19.11361503601074 13.15448570251465 19.3515739440918 13.15448570251465 C 19.5779914855957 13.15448570251465 19.79249000549316 13.2411937713623 19.95557403564453 13.39865207672119 C 20.12253189086914 13.55948543548584 20.21678161621094 13.77586078643799 20.22099113464355 14.00794410705566 C 20.22519874572754 14.24052715301514 20.1385326385498 14.46073532104492 19.97694969177246 14.6280689239502 C 19.81161499023438 14.79931926727295 19.58949089050293 14.89365196228027 19.35153198242188 14.89365196228027 Z M 16.6409912109375 12.27598571777344 C 16.41461563110352 12.27598571777344 16.20028305053711 12.18936061859131 16.03740692138672 12.03206920623779 C 15.87015724182129 11.8706111907959 15.77586555480957 11.6536111831665 15.77194881439209 11.42115211486816 C 15.76803302764893 11.18898582458496 15.85469913482666 10.96931934356689 16.0159912109375 10.80265235900879 C 16.18144989013672 10.63131904602051 16.40369987487793 10.53698539733887 16.64186668395996 10.53698539733887 C 16.86807441711426 10.53698539733887 17.08244895935059 10.62344455718994 17.24544906616211 10.78044414520264 C 17.41232490539551 10.94161033630371 17.50644874572754 11.15848541259766 17.51053237915039 11.39111042022705 C 17.51457405090332 11.62369441986084 17.42803192138672 11.84373569488525 17.26682472229004 12.01069450378418 C 17.10128211975098 12.18173599243164 16.87899017333984 12.27594375610352 16.6409912109375 12.27598571777344 Z" stroke="none" fill="#00379a"/>
  </g>
</svg>
