<svg xmlns="http://www.w3.org/2000/svg" width="39.264" height="33.643" viewBox="0 0 39.264 33.643">
  <g id="Group_2706" data-name="Group 2706" transform="translate(0 0)">
    <path id="Path_6734" data-name="Path 6734" d="M37.861,36.7H14.011a1.433,1.433,0,0,0-1.4,1.465v2.753H3.673A3.679,3.679,0,0,0,0,44.591V62.758a7.614,7.614,0,0,0,7.523,7.584H32.048a7.22,7.22,0,0,0,7.216-7.155V38.1A1.385,1.385,0,0,0,37.861,36.7ZM12.6,43.732V60.55H8.926V45.381a3.581,3.581,0,0,0-.307-1.649ZM11.127,66.056a5.262,5.262,0,0,1-3.551,1.465,4.674,4.674,0,0,1-3.359-1.4,4.66,4.66,0,0,1-1.4-3.367V45.381a1.649,1.649,0,0,1,3.3,0V61.892a1.38,1.38,0,0,0,1.4,1.4h5.015A4.119,4.119,0,0,1,11.127,66.056ZM36.45,63.18A4.637,4.637,0,0,1,35.169,66.3a4.236,4.236,0,0,1-3.121,1.281h-18.4a7.438,7.438,0,0,0,1.833-4.77V39.576H36.511v23.6Z" transform="translate(0 -36.7)" fill="#005cff"/>
    <path id="Path_6735" data-name="Path 6735" d="M239.075,119.8h14v3.842h-14Zm0,6.657h14v2.814h-14Zm0,5.629h14V134.9h-14Zm14.011,5.629H239.075s0,2.814-.675,2.814h12.968C253.086,140.46,253.086,138.627,253.086,137.715Z" transform="translate(-220.118 -112.454)" fill="#636363"/>
  </g>
</svg>
