<svg xmlns="http://www.w3.org/2000/svg" width="167.62" height="75.313" viewBox="0 0 167.62 75.313">
  <g id="Group_2683" data-name="Group 2683" transform="translate(0 0)">
    <text id="ta" transform="translate(0 60.313)" fill="#0069b7" font-size="60" font-family="Ebrima-Bold, Ebrima" font-weight="700"><tspan x="0" y="0">ta</tspan></text>
    <text id="kil" transform="translate(100.62 59)" fill="#636363" font-size="59" font-family="Ebrima-Bold, Ebrima" font-weight="700"><tspan x="0" y="0">kil</tspan></text>
    <line id="Line_68" data-name="Line 68" y2="44.569" transform="translate(61.173 23.397)" fill="none" stroke="#0069b7" stroke-miterlimit="10" stroke-width="11"/>
    <path id="ic_fingerprint_24px" d="M20.812,4.863a.575.575,0,0,1-.277-.07,14.171,14.171,0,0,0-6.7-1.635,14.168,14.168,0,0,0-6.7,1.635.624.624,0,0,1-.818-.232.576.576,0,0,1,.241-.788,15.807,15.807,0,0,1,14.528-.012.558.558,0,0,1,.253.777.592.592,0,0,1-.529.325ZM3.6,10.95a.643.643,0,0,1-.349-.1.565.565,0,0,1-.144-.812,12.31,12.31,0,0,1,4.51-3.791,14.348,14.348,0,0,1,12.4-.012A12.361,12.361,0,0,1,24.528,10a.567.567,0,0,1-.144.812.614.614,0,0,1-.842-.139,11.181,11.181,0,0,0-4.077-3.408,13.1,13.1,0,0,0-11.3.012,11.3,11.3,0,0,0-4.089,3.432.529.529,0,0,1-.469.243Zm7.517,13.993a.574.574,0,0,1-.421-.174A11.778,11.778,0,0,1,8.28,21.708a9.995,9.995,0,0,1-1.263-5.031,6.555,6.555,0,0,1,6.807-6.249,6.555,6.555,0,0,1,6.807,6.249.6.6,0,0,1-1.2,0,5.372,5.372,0,0,0-5.6-5.089,5.372,5.372,0,0,0-5.6,5.089A8.821,8.821,0,0,0,9.339,21.14a11.031,11.031,0,0,0,2.225,2.805.58.58,0,0,1,0,.823A.673.673,0,0,1,11.119,24.942ZM19.742,22.8a6.654,6.654,0,0,1-3.728-1.032,6.118,6.118,0,0,1-2.862-5.089.6.6,0,0,1,1.2,0A4.943,4.943,0,0,0,16.687,20.8a5.419,5.419,0,0,0,3.055.823,8.236,8.236,0,0,0,1.251-.116.6.6,0,0,1,.7.475.58.58,0,0,1-.493.672,8.511,8.511,0,0,1-1.455.139Zm-2.417,2.388a.728.728,0,0,1-.156-.023,9.477,9.477,0,0,1-4.474-2.435,8.308,8.308,0,0,1-2.61-6.052,3.569,3.569,0,0,1,3.7-3.408,3.569,3.569,0,0,1,3.7,3.408,2.386,2.386,0,0,0,2.5,2.249,2.386,2.386,0,0,0,2.5-2.249c0-4.371-3.909-7.918-8.719-7.918a8.822,8.822,0,0,0-7.95,4.672,7.231,7.231,0,0,0-.71,3.246,11.149,11.149,0,0,0,.806,4.185.56.56,0,0,1-.349.742.6.6,0,0,1-.77-.336,12.5,12.5,0,0,1-.878-4.591,8.444,8.444,0,0,1,.818-3.756,10.027,10.027,0,0,1,9.032-5.333c5.472,0,9.922,4.069,9.922,9.077a3.569,3.569,0,0,1-3.7,3.408,3.569,3.569,0,0,1-3.7-3.408,2.386,2.386,0,0,0-2.5-2.249,2.386,2.386,0,0,0-2.5,2.249,7.17,7.17,0,0,0,2.249,5.228,8.258,8.258,0,0,0,3.933,2.145.573.573,0,0,1,.421.707A.583.583,0,0,1,17.324,25.186Z" transform="translate(66.638 26.544)" fill="#005cff"/>
    <ellipse id="Ellipse_377" data-name="Ellipse 377" cx="19.427" cy="19.028" rx="19.427" ry="19.028" transform="translate(61.429 20.833)" fill="none" stroke="#0069b7" stroke-miterlimit="10" stroke-width="9"/>
  </g>
</svg>
