<svg xmlns="http://www.w3.org/2000/svg" width="208.075" height="92.379" viewBox="0 0 208.075 92.379">
  <g id="logo" transform="translate(-29.236 -283.806)">
    <g id="Group_2" data-name="Group 2" transform="translate(29.236 283.806)">
      <text id="ta" transform="translate(0 74.379)" fill="#fff" font-size="74" font-family="Ebrima-Bold, Ebrima" font-weight="700"><tspan x="0" y="0">ta</tspan></text>
      <text id="kil" transform="translate(124.075 74)" fill="#fff" font-size="74" font-family="Ebrima-Bold, Ebrima" font-weight="700"><tspan x="0" y="0">kil</tspan></text>
      <line id="Line_67" data-name="Line 67" y2="54.001" transform="translate(75.432 28.348)" fill="none" stroke="#fff" stroke-miterlimit="10" stroke-width="16"/>
      <path id="ic_fingerprint_24px" d="M25.221,5.5a.73.73,0,0,1-.345-.085,17.991,17.991,0,0,0-8.357-2,17.986,17.986,0,0,0-8.357,2,.788.788,0,0,1-1.02-.283.7.7,0,0,1,.3-.962,20.1,20.1,0,0,1,18.124-.014.674.674,0,0,1,.315.948.74.74,0,0,1-.66.4ZM3.752,12.926a.815.815,0,0,1-.435-.127.681.681,0,0,1-.18-.991A15.28,15.28,0,0,1,8.763,7.18a18.252,18.252,0,0,1,15.468-.014,15.346,15.346,0,0,1,5.626,4.6.683.683,0,0,1-.18.991.777.777,0,0,1-1.05-.17,13.881,13.881,0,0,0-5.086-4.161,16.662,16.662,0,0,0-14.1.014,14.022,14.022,0,0,0-5.1,4.189.665.665,0,0,1-.585.3Zm9.377,17.083A.725.725,0,0,1,12.6,29.8,14.433,14.433,0,0,1,9.588,26.06a12,12,0,0,1-1.575-6.142c0-4.2,3.811-7.628,8.492-7.628S25,15.714,25,19.918a.751.751,0,0,1-1.5,0c0-3.425-3.136-6.213-6.991-6.213s-6.991,2.788-6.991,6.213a10.588,10.588,0,0,0,1.4,5.449,13.521,13.521,0,0,0,2.776,3.425.7.7,0,0,1,0,1A.85.85,0,0,1,13.129,30.009ZM23.886,27.39a8.436,8.436,0,0,1-4.651-1.26,7.435,7.435,0,0,1-3.571-6.213.751.751,0,0,1,1.5,0,6.008,6.008,0,0,0,2.911,5.038,6.872,6.872,0,0,0,3.811,1,10.494,10.494,0,0,0,1.56-.142.745.745,0,0,1,.87.58.71.71,0,0,1-.615.821,10.844,10.844,0,0,1-1.815.17ZM20.87,30.306a.927.927,0,0,1-.2-.028,11.9,11.9,0,0,1-5.581-2.972,10.042,10.042,0,0,1-3.256-7.388,4.414,4.414,0,0,1,4.621-4.161,4.414,4.414,0,0,1,4.621,4.161A2.951,2.951,0,0,0,24.2,22.663a2.951,2.951,0,0,0,3.121-2.746c0-5.336-4.876-9.666-10.877-9.666a11.043,11.043,0,0,0-9.917,5.7,8.67,8.67,0,0,0-.885,3.963,13.353,13.353,0,0,0,1.005,5.109.68.68,0,0,1-.435.906.758.758,0,0,1-.96-.41,14.978,14.978,0,0,1-1.1-5.6,10.125,10.125,0,0,1,1.02-4.586,12.55,12.55,0,0,1,11.267-6.51c6.826,0,12.378,4.968,12.378,11.082A4.414,4.414,0,0,1,24.2,24.064,4.414,4.414,0,0,1,19.58,19.9a2.951,2.951,0,0,0-3.121-2.746A2.951,2.951,0,0,0,13.339,19.9a8.666,8.666,0,0,0,2.806,6.383A10.368,10.368,0,0,0,21.05,28.9a.7.7,0,0,1,.525.863A.724.724,0,0,1,20.87,30.306Z" transform="translate(83.003 31.667)" fill="#fff"/>
    </g>
    <ellipse id="Ellipse_1" data-name="Ellipse 1" cx="23.955" cy="23.056" rx="23.955" ry="23.056" transform="translate(104.984 309.048)" fill="none" stroke="#fff" stroke-miterlimit="10" stroke-width="13"/>
  </g>
</svg>
