<svg xmlns="http://www.w3.org/2000/svg" width="29.724" height="29.724" viewBox="0 0 29.724 29.724">
  <path id="Shape" d="M12.293,17.928A12.009,12.009,0,0,1,8.667,11.11a1.02,1.02,0,0,1,.293-.854l2.3-2.3a1.026,1.026,0,0,0,.145-1.27L7.744,1.007A1.026,1.026,0,0,0,6.414.633L.54,3.4A1.02,1.02,0,0,0-.025,4.419C.283,7.343,1.558,14.532,8.622,21.6S22.874,29.936,25.8,30.243a1.02,1.02,0,0,0,1.019-.564L29.586,23.8a1.026,1.026,0,0,0-.372-1.327l-5.682-3.658a1.026,1.026,0,0,0-1.27.144l-2.3,2.3a1.02,1.02,0,0,1-.854.293,12.009,12.009,0,0,1-6.818-3.626Z" transform="translate(0.03 -0.524)" fill="#005cff"/>
</svg>
